<?xml version="1.0" encoding="iso-8859-1"?>
<!-- Generator: Adobe Illustrator 19.0.0, SVG Export Plug-In . SVG Version: 6.00 Build 0)  -->
<svg version="1.1" id="Layer_1" xmlns="http://www.w3.org/2000/svg" xmlns:xlink="http://www.w3.org/1999/xlink" x="0px" y="0px"
	 viewBox="0 0 460 460" style="enable-background:new 0 0 460 460;" xml:space="preserve">
<g>
	<path style="fill:#273B7A;" d="M230,0C102.974,0,0,102.974,0,230c0,98.266,61.624,182.138,148.335,215.08l311.401-226.207
		C453.931,97.015,353.295,0,230,0z"/>
	<path style="fill:#121149;" d="M80.843,377.566l67.497,67.497C173.719,454.705,201.239,460,230,460c127.025,0,230-102.975,230-230
		c0-3.731-0.097-7.439-0.272-11.126L292.42,51.566L80.843,377.566z"/>
	<path style="fill:#FF5419;" d="M277.423,135.886l14.997-84.32h-62.087l-40,160l40,166h20l27.373-20l27.373,20h20l34.745-20v-100.82
		C359.823,201.646,325.923,154.586,277.423,135.886z"/>
	<path style="fill:#FF7F4F;" d="M168.246,51.566l14.997,84.32c-48.5,18.7-82.4,65.76-82.4,120.86v100.82l34.745,20h94.745v-326
		C230.333,51.566,168.246,51.566,168.246,51.566z"/>
	<rect x="168.246" y="115.89" style="fill:#FFAD9E;" width="124.174" height="20"/>
	<rect x="168.246" y="95.89" style="fill:#FFFFFF;" width="124.174" height="20"/>
	<polygon style="fill:#FFC61B;" points="305.078,377.566 250.333,377.566 250.333,357.566 277.706,347.566 305.078,357.566 	"/>
	<polygon style="fill:#FEE187;" points="305.078,357.566 250.333,357.566 250.333,337.566 277.706,327.566 305.078,337.566 	"/>
	<polygon style="fill:#FFC61B;" points="305.078,337.566 250.333,337.566 250.333,317.566 277.706,307.566 305.078,317.566 	"/>
	<polygon style="fill:#FEE187;" points="305.078,317.566 250.333,317.566 250.333,297.566 277.706,287.566 305.078,297.566 	"/>
	<polygon style="fill:#FFC61B;" points="305.078,297.566 250.333,297.566 250.333,277.566 277.706,267.566 305.078,277.566 	"/>
	<polygon style="fill:#FEE187;" points="305.078,277.566 250.333,277.566 250.333,257.566 277.706,247.566 305.078,257.566 	"/>
	<rect x="250.333" y="237.566" style="fill:#FFC61B;" width="54.745" height="20"/>
	<polygon style="fill:#FEE187;" points="135.588,377.566 80.843,377.566 80.843,357.566 108.216,347.566 135.588,357.566 	"/>
	<polygon style="fill:#FFC61B;" points="379.823,377.566 325.078,377.566 325.078,357.566 352.451,347.566 379.823,357.566 	"/>
	<polygon style="fill:#FEE187;" points="379.823,357.566 325.078,357.566 325.078,337.566 352.451,327.566 379.823,337.566 	"/>
	<polygon style="fill:#FFC61B;" points="379.823,337.566 325.078,337.566 325.078,317.566 352.451,307.566 379.823,317.566 	"/>
	<polygon style="fill:#FEE187;" points="379.823,317.566 325.078,317.566 325.078,297.566 352.451,287.566 379.823,297.566 	"/>
	<polygon style="fill:#FFC61B;" points="379.823,297.566 325.078,297.566 325.078,277.566 352.451,267.566 379.823,277.566 	"/>
	<polygon style="fill:#FEE187;" points="379.823,277.566 325.078,277.566 325.078,257.566 352.451,247.566 379.823,257.566 	"/>
	<polygon style="fill:#FFC61B;" points="379.823,257.566 325.078,257.566 325.078,237.566 352.451,227.566 379.823,237.566 	"/>
	<rect x="325.078" y="217.566" style="fill:#FEE187;" width="54.745" height="20"/>
	<polygon style="fill:#FFEDB5;" points="135.588,357.566 80.843,357.566 80.843,337.566 108.216,327.566 135.588,337.566 	"/>
	<polygon style="fill:#FEE187;" points="135.588,337.566 80.843,337.566 80.843,317.566 108.216,307.566 135.588,317.566 	"/>
	<polygon style="fill:#FFEDB5;" points="135.588,317.566 80.843,317.566 80.843,297.566 108.216,287.566 135.588,297.566 	"/>
	<polygon style="fill:#FEE187;" points="135.588,297.566 80.843,297.566 80.843,277.566 108.216,267.566 135.588,277.566 	"/>
	<polygon style="fill:#FFEDB5;" points="135.588,277.566 80.843,277.566 80.843,257.566 108.216,247.566 135.588,257.566 	"/>
	<polygon style="fill:#FEE187;" points="135.588,257.566 80.843,257.566 80.843,237.566 108.216,227.566 135.588,237.566 	"/>
	<rect x="80.843" y="217.566" style="fill:#FFEDB5;" width="54.745" height="20"/>
</g>
<g>
</g>
<g>
</g>
<g>
</g>
<g>
</g>
<g>
</g>
<g>
</g>
<g>
</g>
<g>
</g>
<g>
</g>
<g>
</g>
<g>
</g>
<g>
</g>
<g>
</g>
<g>
</g>
<g>
</g>
</svg>
