<svg width="40" height="40" viewBox="0 0 40 40" fill="none" xmlns="http://www.w3.org/2000/svg">
<g clip-path="url(#clip0)">
<path d="M39.4018 24.8368C36.7296 35.5568 25.8685 42.0733 15.1638 39.401C4.44354 36.7288 -2.07302 25.8682 0.599319 15.1637C3.27151 4.44366 14.1168 -2.0729 24.8371 0.599443C35.5418 3.25601 42.0742 14.1166 39.4018 24.8368Z" fill="#E0E0E0"/>
<path d="M29.5231 17.5081C29.9138 14.8518 27.8981 13.4143 25.1169 12.4612L26.0231 8.85181L23.8356 8.30493L22.9606 11.8206C22.3825 11.6799 21.7888 11.5393 21.195 11.4143L22.07 7.88306L19.8825 7.33618L18.9919 10.9299C18.5075 10.8206 18.0388 10.7112 17.5856 10.6018V10.5862L14.5544 9.83618L13.9763 12.1799C13.9763 12.1799 15.6013 12.5549 15.57 12.5706C16.4606 12.7893 16.6169 13.3831 16.5856 13.8518L15.5544 17.9612C15.6169 17.9768 15.695 17.9924 15.7888 18.0393C15.7106 18.0237 15.6325 18.0081 15.5544 17.9768L14.1169 23.7268C14.0075 23.9924 13.7263 24.3987 13.1169 24.2424C13.1325 24.2737 11.5231 23.8518 11.5231 23.8518L10.4294 26.3674L13.2888 27.0862C13.82 27.2268 14.3356 27.3518 14.8513 27.4924L13.945 31.1331L16.1325 31.6799L17.0388 28.0706C17.6325 28.2268 18.2263 28.3831 18.7888 28.5237L17.8981 32.1174L20.0856 32.6643L20.9919 29.0237C24.7419 29.7268 27.5544 29.4456 28.7263 26.0549C29.6794 23.3362 28.6794 21.7581 26.7106 20.7268C28.1638 20.3987 29.2419 19.4456 29.5231 17.5081ZM24.5075 24.5393C23.8356 27.2581 19.2419 25.7893 17.7575 25.4143L18.9606 20.5862C20.445 20.9612 25.2263 21.6956 24.5075 24.5393ZM25.195 17.4612C24.57 19.9456 20.7575 18.6799 19.5231 18.3674L20.6169 13.9924C21.8513 14.3049 25.8356 14.8831 25.195 17.4612Z" fill="#0D0D2B"/>
</g>
<defs>
<clipPath id="clip0">
<rect width="40" height="40" fill="white"/>
</clipPath>
</defs>
</svg>
