<svg width="90px" height="90px" viewBox="0 0 90 90" xmlns="http://www.w3.org/2000/svg"><defs><style>.cls-1{fill:#94d5d2;}.cls-2{fill:#ffdac6;}.cls-3{fill:#ffeb97;}.cls-4{fill:#e6d488;}.cls-5{fill:#d6d6d6;}.cls-6{fill:#576065;}</style></defs><title>hand-coins</title><g id="hand-coins"><g id="hand-coins-2" data-name="hand-coins"><g id="fill"><rect class="cls-1" x="1.8" y="44.03" width="18.66" height="33.58"/><path class="cls-2" d="M22.78,50.86c16.68.24,20.64,8.16,25,8.16s17.61-1.63,16.09,6.76c6,1.71,14.11-9.56,18.08-9.56s6.3,2.1,6.3,6.53c0,5.95-25.54,19.59-36.15,19.59C41.91,82.34,27,72,22.08,72"/><circle class="cls-3" cx="63.37" cy="44.03" r="6.52"/><circle class="cls-4" cx="44.71" cy="29.1" r="6.52"/><circle class="cls-5" cx="63.37" cy="14.18" r="6.52"/></g><g id="outline"><path class="cls-6" d="M20.46,79.41H1.8A1.8,1.8,0,0,1,0,77.61V44a1.8,1.8,0,0,1,1.8-1.8H20.46a1.8,1.8,0,0,1,1.8,1.8V77.61A1.8,1.8,0,0,1,20.46,79.41ZM3.6,75.81H18.66v-30H3.6Z"/><path class="cls-6" d="M52.05,84.14c-6.39,0-14.32-3.74-20.68-6.75-3.78-1.78-7.69-3.63-9.29-3.63a1.8,1.8,0,0,1,0-3.6c2.41,0,6.12,1.75,10.83,4,6,2.85,13.56,6.4,19.14,6.4,11,0,34.35-13.94,34.35-17.79C86.4,59.48,85,58,81.9,58c-1,0-3.56,2.1-5.44,3.64-4.08,3.34-8.7,7.12-13.13,5.86a1.8,1.8,0,0,1-1.28-2.05,3,3,0,0,0-.52-2.75c-2-2.3-8.38-2.07-11.82-1.94-.77,0-1.44.05-2,.05-2,0-3.66-1.07-5.76-2.42-3.68-2.36-8.72-5.6-19.22-5.75a1.8,1.8,0,0,1,0-3.6h0c11.53.16,17.3,3.87,21.11,6.31,1.61,1,2.88,1.85,3.82,1.85.5,0,1.13,0,1.85-.05,4.59-.17,11.54-.42,14.67,3.18a6.06,6.06,0,0,1,1.48,3.76c2.52-.39,5.76-3,8.45-5.24,3-2.49,5.44-4.45,7.72-4.45,5.15,0,8.1,3,8.1,8.33C90,70.64,62,84.14,52.05,84.14Z"/><path class="cls-6" d="M63.37,68.21H37.25a1.8,1.8,0,0,1,0-3.6H63.37a1.8,1.8,0,1,1,0,3.6Z"/><path class="cls-6" d="M63.37,52.35A8.32,8.32,0,1,1,71.69,44,8.33,8.33,0,0,1,63.37,52.35Zm0-13A4.72,4.72,0,1,0,68.09,44,4.73,4.73,0,0,0,63.37,39.3Z"/><path class="cls-6" d="M44.71,37.42A8.32,8.32,0,1,1,53,29.1,8.33,8.33,0,0,1,44.71,37.42Zm0-13a4.72,4.72,0,1,0,4.72,4.72A4.72,4.72,0,0,0,44.71,24.38Z"/><path class="cls-6" d="M63.37,22.5a8.32,8.32,0,1,1,8.32-8.32A8.33,8.33,0,0,1,63.37,22.5Zm0-13a4.72,4.72,0,1,0,4.72,4.72A4.73,4.73,0,0,0,63.37,9.46Z"/><path class="cls-6" d="M19.72,52.66H2.09a1.8,1.8,0,0,1,0-3.6H19.72a1.8,1.8,0,0,1,0,3.6Z"/><path class="cls-6" d="M19.72,59.64H2.09a1.8,1.8,0,0,1,0-3.6H19.72a1.8,1.8,0,0,1,0,3.6Z"/><path class="cls-6" d="M19.72,66.61H2.09a1.8,1.8,0,0,1,0-3.6H19.72a1.8,1.8,0,1,1,0,3.6Z"/><path class="cls-6" d="M19.72,73.58H2.09a1.8,1.8,0,0,1,0-3.6H19.72a1.8,1.8,0,1,1,0,3.6Z"/></g></g></g></svg>