<?xml version="1.0" encoding="iso-8859-1"?>
<!-- Generator: Adobe Illustrator 19.0.0, SVG Export Plug-In . SVG Version: 6.00 Build 0)  -->
<svg version="1.1" id="Layer_1" xmlns="http://www.w3.org/2000/svg" xmlns:xlink="http://www.w3.org/1999/xlink" x="0px" y="0px"
	 viewBox="0 0 297.085 297.085" style="enable-background:new 0 0 297.085 297.085;" xml:space="preserve">
<g>
	<g>
		<g>
			<path style="fill:#FFDB77;" d="M154.099,272.254c-52.483,35.396-146.6,11.672-146.6-36.361v-53.3
				c0,38.199,61.927,63.736,117.23,49.22C130.269,248.094,140.629,262.143,154.099,272.254z"/>
		</g>
		<g>
			<path style="fill:#FFDB77;" d="M176.881,61.189c0,29.431-37.935,53.29-84.69,53.29c-46.792,0-84.69-23.881-84.69-53.29
				c0-29.44,37.92-53.3,84.69-53.3S176.881,31.749,176.881,61.189z"/>
		</g>
		<g>
			<path style="fill:#FFDB77;" d="M176.881,61.189c0,29.431-37.935,53.29-84.69,53.29c-46.792,0-84.69-23.881-84.69-53.29
				c0-29.44,37.92-53.3,84.69-53.3S176.881,31.749,176.881,61.189z"/>
		</g>
		<g>
			<path style="fill:#FFDB77;" d="M124.729,231.814c-55.252,14.502-117.23-10.997-117.23-49.22v-60.7
				c0,9.682,4.004,18.123,10.22,25.39c0,0,21.332,27.9,74.47,27.9c11.555,0,24.007-1.534,35.19-4.81
				C118.742,189.914,117.985,212.089,124.729,231.814z"/>
		</g>
		<g>
			<path style="fill:#FFDB77;" d="M176.879,121.893v2.66c-0.04,0.01-0.08,0.02-0.11,0.04
				C176.839,123.703,176.879,122.804,176.879,121.893z"/>
		</g>
		<g>
			<path style="fill:#FFDB77;" d="M176.879,61.194c0,66.156,0.047,61.402-0.11,63.4c-22.11,7.78-40.01,24.48-49.39,45.78
				c-11.206,3.282-23.606,4.81-35.19,4.81c-51.173,0-75.698-27.9-74.47-27.9c-6.306-7.373-10.22-15.814-10.22-25.39v-60.7
				c0,18.895,15.484,33.671,32.4,41.92c0,0,0,0,0.01,0c29.491,14.745,73.991,15.783,106.14-0.8c0.01,0,0.02,0,0.02-0.01
				C162.137,93.961,176.879,79.722,176.879,61.194z"/>
		</g>
	</g>
	<g>
		<path style="fill:#FFDB77;" d="M176.884,124.553c-0.04,0.01-0.08,0.02-0.12,0.04c-44.14,15.53-66.89,63.76-52.04,107.22
			c5.54,16.28,15.91,30.33,29.38,40.44c55.25,41.51,135.48,2.34,135.48-67.76C289.584,145.923,231.614,105.333,176.884,124.553z
			 M204.904,258.183c-29.65,0-53.69-24.05-53.69-53.69c0-29.65,24.01-53.7,53.69-53.7c29.66,0,53.7,24.04,53.7,53.7
			C258.604,234.143,234.564,258.183,204.904,258.183z"/>
		<g>
			<g>
				<path style="fill:#FFDB77;" d="M258.599,204.494c0,29.65-24.04,53.69-53.7,53.69c-29.643,0-53.69-24.047-53.69-53.69
					c0-29.649,24.016-53.7,53.69-53.7C234.559,150.794,258.599,174.833,258.599,204.494z"/>
			</g>
		</g>
		<g>
			<path style="fill:#414042;" d="M92.191,94.479c27.19,0,48.49-14.624,48.49-33.292c0-18.671-21.3-33.297-48.49-33.297
				s-48.49,14.625-48.49,33.297C43.701,79.855,65.001,94.479,92.191,94.479z M92.191,42.889c17.841,0,33.49,8.55,33.49,18.297
				c0,10.78-17.649,18.292-33.49,18.292c-19.736,0-33.49-9.641-33.49-18.292C58.701,51.439,74.351,42.889,92.191,42.889z"/>
			<path style="fill:#414042;" d="M184.384,114.58c0.003-4.395,0.002-3.56-0.005-53.235c0-0.052,0.003-0.104,0.003-0.156
				c0-34.776-42.272-60.8-92.19-60.8c-49.91,0-92.118,26.001-92.188,60.715c0,0.03-0.004,0.059-0.004,0.09
				c0,6.757,0,165.999,0,174.7c0,54.355,97.154,79.21,153.876,45.362c60.097,40.099,143.209-2.281,143.209-76.763
				C297.084,143.988,240.623,101.52,184.384,114.58z M122.049,164.047c-50.421,12.89-107.05-10.123-107.05-42.153V94.702
				c19.105,19.158,49.821,27.277,77.192,27.277c27.1,0,58.017-8.052,77.191-27.275c0.002,4.337,0.007,20.393-0.004,24.698
				C148,128.315,131.449,144.822,122.049,164.047z M15.154,185.367c-0.214-2.098-0.155-0.045-0.155-29.651
				c25.141,24.246,66.848,30.805,100.843,24.986c-3.837,14.511-4.312,30.073-0.543,45.545
				C72.488,234.392,18.343,216.757,15.154,185.367z M92.191,15.389c41.826,0,77.162,20.958,77.189,45.772
				c0,0.011-0.002,0.022-0.002,0.033c0,0.071-0.006,0.139-0.007,0.21c-0.204,24.729-35.468,45.575-77.181,45.575
				c-41.841,0-77.189-20.969-77.189-45.789C15.002,36.363,50.351,15.389,92.191,15.389z M14.999,235.894v-19.73
				c24.953,24.869,70.107,31.685,105.063,24.445c4.948,11.646,12.347,22.149,21.126,30.521
				C92.218,295.792,14.999,274.319,14.999,235.894z M158.606,266.254c-49.647-37.26-36.844-114.353,20.651-134.586
				c0.005-0.002,0.009-0.005,0.014-0.006c0.032-0.011,0.065-0.021,0.097-0.033c49.961-17.542,102.715,19.428,102.715,72.864
				C282.084,269.141,208.365,303.639,158.606,266.254z"/>
			<path style="fill:#414042;" d="M204.904,143.293c-33.74,0-61.195,27.449-61.195,61.201c0,33.74,27.45,61.19,61.191,61.19
				c33.745,0,61.205-27.445,61.205-61.191C266.104,170.747,238.65,143.293,204.904,143.293z M204.904,250.683
				c-25.47,0-46.191-20.721-46.191-46.19c0-25.478,20.724-46.199,46.186-46.199c25.475,0,46.199,20.725,46.199,46.2
				C251.099,229.958,230.379,250.683,204.904,250.683z"/>
			<path style="fill:#414042;" d="M208.691,200.072v-12.129c2.147,0.505,4.295,1.453,6.506,2.779
				c4.159,2.494,7.797-3.543,3.538-5.938c-2.906-1.832-6.064-3.032-9.792-3.475v-1.39c0-1.516-1.2-2.716-2.716-2.716
				c-1.517,0-2.78,1.2-2.78,2.716v1.327c-7.896,0.632-13.266,5.306-13.266,12.066c0,7.138,4.296,10.612,13.519,13.013v12.445
				c-3.475-0.632-6.38-2.085-9.35-4.232c-2.101-1.635-5.559-0.281-5.559,2.779c0,1.327,0.632,2.337,1.706,3.032
				c3.853,2.716,8.212,4.422,12.949,4.927v3.916c0,3.54,5.496,3.648,5.496,0v-3.79c8.023-0.758,13.456-5.37,13.456-12.318
				C222.399,206.326,218.293,202.472,208.691,200.072z M203.7,198.745c-4.864-1.58-6.064-3.222-6.064-5.875
				c0-2.78,2.021-4.927,6.064-5.307V198.745z M208.691,219.023v-11.497c4.863,1.516,6.254,3.222,6.254,6.001
				C214.945,216.56,212.734,218.581,208.691,219.023z"/>
		</g>
	</g>
</g>
<g>
</g>
<g>
</g>
<g>
</g>
<g>
</g>
<g>
</g>
<g>
</g>
<g>
</g>
<g>
</g>
<g>
</g>
<g>
</g>
<g>
</g>
<g>
</g>
<g>
</g>
<g>
</g>
<g>
</g>
</svg>
