<svg width="0" height="0" class="hidden">
  <symbol fill="none" xmlns="http://www.w3.org/2000/svg" viewBox="0 0 80 80" id="btc">
    <circle cx="40" cy="40" r="40" fill="#F9AA4B"></circle>
    <g clip-path="url(#clip0)">
      <path d="M78.803 49.673c-5.344 21.44-27.066 34.473-48.475 29.129C8.887 73.457-4.146 51.736 1.198 30.327 6.544 8.887 28.234-4.146 49.675 1.199c21.41 5.313 34.474 27.034 29.13 48.474z" fill="url(#paint0_linear)"></path>
      <path d="M59.045 35.016c.781-5.313-3.25-8.188-8.813-10.094l1.813-7.219-4.375-1.093-1.75 7.03a117.025 117.025 0 00-3.531-.812l1.75-7.062-4.375-1.094-1.782 7.188a211.62 211.62 0 01-2.812-.657v-.03l-6.063-1.5-1.156 4.687s3.25.75 3.188.78c1.78.438 2.093 1.626 2.03 2.563l-2.062 8.22c.125.03.282.062.47.155a2.599 2.599 0 01-.47-.125l-2.875 11.5c-.218.532-.78 1.344-2 1.032.032.062-3.187-.782-3.187-.782l-2.188 5.032 5.72 1.437c1.062.281 2.093.531 3.124.813l-1.812 7.28 4.375 1.095 1.812-7.22c1.188.313 2.375.626 3.5.907l-1.781 7.188 4.375 1.093 1.812-7.28c7.5 1.405 13.125.843 15.47-5.938 1.905-5.438-.095-8.594-4.032-10.657 2.906-.656 5.062-2.562 5.625-6.437zM49.014 49.078c-1.344 5.438-10.532 2.5-13.5 1.75l2.406-9.656c2.969.75 12.531 2.219 11.094 7.906zm1.375-14.156c-1.25 4.969-8.875 2.438-11.344 1.813l2.187-8.75c2.47.625 10.438 1.78 9.157 6.937z" fill="#fff"></path>
    </g>
    <defs>
      <linearGradient id="paint0_linear" x1="39.978" y1="-.019" x2="39.978" y2="79.992" gradientUnits="userSpaceOnUse">
        <stop stop-color="#F9AA4B"></stop>
        <stop offset="1" stop-color="#F7931A"></stop>
      </linearGradient>
      <clipPath id="clip0">
        <path fill="#fff" d="M0 0h80v80H0z"></path>
      </clipPath>
    </defs>
  </symbol>
  <symbol fill="none" xmlns="http://www.w3.org/2000/svg" viewBox="0 0 80 80" id="eth">
    <circle cx="40" cy="40" r="40" fill="#1181E8"></circle>
    <g clip-path="url(#clip0)">
      <path d="M39.89 51.938l-14.735-8.695 14.726 20.758 14.742-20.758-14.742 8.695h.009zM40.109 16L25.38 40.446l14.729 8.71 14.734-8.701L40.11 16z" fill="#fff"></path>
    </g>
    <defs>
      <clipPath id="clip0">
        <path fill="#fff" transform="translate(16 16)" d="M0 0h48v48H0z"></path>
      </clipPath>
    </defs>
  </symbol>
  <symbol fill="none" xmlns="http://www.w3.org/2000/svg" viewBox="0 0 80 80" id="ltc">
    <g clip-path="url(#clip0)">
      <circle cx="40" cy="40" r="40" fill="#fff"></circle>
      <path d="M40 0a40 40 0 100 80 40 40 0 000-80zm-.873 12.26h8.613a1.144 1.144 0 011.1 1.45l-6.767 23.06 6.35-1.94-1.36 4.617-6.413 1.866-4.16 14.047h22.253a1.143 1.143 0 011.094 1.457l-1.94 6.666a1.53 1.53 0 01-1.467 1.1H22.443l5.744-19.406-6.354 1.933 1.4-4.537L29.6 40.64l8.073-27.267a1.52 1.52 0 011.457-1.113h-.003z" fill="#59C19C"></path>
    </g>
    <defs>
      <clipPath id="clip0">
        <path fill="#fff" d="M0 0h80v80H0z"></path>
      </clipPath>
    </defs>
  </symbol>
</svg>