<?xml version="1.0" encoding="iso-8859-1"?>
<!-- Generator: Adobe Illustrator 19.0.0, SVG Export Plug-In . SVG Version: 6.00 Build 0)  -->
<svg xmlns="http://www.w3.org/2000/svg" xmlns:xlink="http://www.w3.org/1999/xlink" version="1.1" id="Layer_1" x="0px" y="0px" viewBox="0 0 502 502" style="enable-background:new 0 0 502 502;" xml:space="preserve" width="512" height="512">
<g>
	<path style="fill:#50A5DC;" d="M122.632,388.606c-10.082-3.477-18.913-9.854-25.383-18.332l-16.297-21.354   c-1.807-2.367-2.807-5.251-2.855-8.229l-0.731-45.341c-0.112-6.93,4.887-12.888,11.73-13.983   c7.326-1.172,12.449-7.88,11.652-15.256l-1.392-12.88c-0.418-3.865-2.432-7.38-5.555-9.695l-10.27-7.614   c-9.325-6.914-20.626-10.646-32.235-10.646h-6.779c-2.892,0-5.78-0.232-8.636-0.693l-23.646-3.822   C10.772,230.649,10,240.741,10,251c0,81.638,47.847,152.971,119.109,191.536l5.029-35.085   C135.318,399.223,130.49,391.316,122.632,388.606z"/>
	<path style="fill:#50A5DC;" d="M465.577,316.05l-1.403-1.733c-3.948-4.877-10.547-6.726-16.454-4.61l-10.666,3.821   c-6.744,2.416-13.953,3.249-21.07,2.437l-3.132-0.358c-16.603-1.896-30.932-12.509-37.585-27.839   c-3.781-8.713-4.819-18.371-2.975-27.688l6.45-32.595c1.738-8.781,5.959-16.878,12.163-23.33l2.546-2.648   c10.63-11.055,26.005-16.193,41.145-13.751l16.915,2.728c0.375,0.061,0.748,0.135,1.118,0.225l32.596,7.878   c-5.516-20.989-14.262-40.814-25.74-58.999l-20.491-2.941c-0.296-0.042-0.589-0.097-0.88-0.164l-22.428-5.15   c-6.9-1.584-13.426,3.801-13.181,10.876c0.131,3.77-1.719,7.333-4.877,9.396l-14.522,9.484c-3.382,2.209-7.715,2.341-11.225,0.341   l-20.453-11.649c-5.684-3.237-8.56-9.828-7.068-16.196l4.602-19.644c1.529-6.527,7.263-11.204,13.964-11.391l17.329-0.482   c8.037-0.224,14.418-6.837,14.353-14.878l-0.118-14.557C354.402,45.221,304.759,29,251,29c-14.869,0-29.42,1.249-43.545,3.623   c8.568,5.927,15.471,14.35,19.523,24.585l0.568,1.435c1.742,4.402,2.9,9.014,3.443,13.717l0.504,4.364   c1.1,9.529-0.353,19.179-4.209,27.962l-5.439,12.388c-4.349,9.906-11.566,18.281-20.721,24.045l-6.776,4.266   c-3.815,2.402-6.037,6.676-5.812,11.179l0.915,18.302c0.38,7.597-6.069,13.762-13.641,13.041c-4.148-0.395-7.825-2.835-9.8-6.504   l-8.322-15.454c-1.608-2.986-4.363-5.189-7.63-6.101l-29.409-8.207c-5.476-1.528-11.315-1.076-16.49,1.276l-7.003,3.183   c-10.463,4.756-16.127,16.225-13.542,27.424h0c1.018,4.412,3.255,8.448,6.457,11.65l19.107,19.107   c1.328,1.328,2.587,2.725,3.77,4.184l13.1,16.157c3.87,4.773,9.694,7.538,15.839,7.519l35.689-0.109   c7.246-0.022,13.956,3.818,17.607,10.077c2.879,4.935,7.702,8.429,13.289,9.626l13.372,2.866c5.785,1.24,10.742,4.94,13.575,10.134   l6.459,11.841c1.611,2.954,4.079,5.351,7.078,6.875l30.352,15.425c6.262,3.182,9.855,9.95,8.984,16.92   c-0.503,4.024-2.456,7.726-5.493,10.413l-11.53,10.2c-2.039,1.804-3.605,4.08-4.561,6.629l-2.512,6.7   c-1.741,4.643-5.329,8.356-9.909,10.255l-12.28,5.092c-6.689,2.773-11.05,9.302-11.05,16.544c0,2.896-0.703,5.75-2.047,8.315   l-35.003,66.774C212.211,470.813,231.327,473,251,473c96.678,0,180.045-52.447,218.44-128.132l-0.581-19.959   C468.765,321.677,467.612,318.564,465.577,316.05z"/>
	<g>
		<path style="fill:#7AC943;" d="M230.956,391.627c0-7.241,4.361-13.77,11.05-16.544l12.28-5.092    c4.58-1.899,8.168-5.612,9.909-10.255l2.512-6.7c0.956-2.549,2.522-4.825,4.561-6.629l11.53-10.2    c3.037-2.687,4.99-6.389,5.493-10.413c0.871-6.97-2.722-13.738-8.984-16.92l-30.352-15.425c-3-1.524-5.467-3.921-7.078-6.875    l-6.459-11.841c-2.833-5.194-7.79-8.895-13.575-10.134l-13.372-2.866c-5.586-1.197-10.41-4.691-13.289-9.626    c-3.651-6.259-10.36-10.099-17.607-10.077l-35.689,0.109c-6.145,0.019-11.969-2.746-15.839-7.519l-13.1-16.157    c-1.183-1.459-2.441-2.856-3.77-4.184L90.07,195.174c-3.201-3.201-5.439-7.238-6.457-11.65h0    c-2.584-11.199,3.079-22.668,13.542-27.424l7.003-3.183c5.175-2.352,11.014-2.804,16.49-1.276l29.409,8.207    c3.267,0.912,6.022,3.115,7.63,6.101l8.322,15.454c1.975,3.669,5.652,6.109,9.8,6.504c7.572,0.721,14.021-5.444,13.641-13.041    l-0.915-18.302c-0.225-4.503,1.997-8.777,5.812-11.179l6.776-4.266c9.155-5.764,16.372-14.139,20.721-24.045l5.439-12.388    c3.856-8.783,5.309-18.433,4.209-27.962l-0.504-4.364c-0.543-4.703-1.7-9.315-3.443-13.717l-0.568-1.435    c-4.051-10.235-10.955-18.658-19.523-24.585C105.722,49.726,26.298,125.663,12.235,220.76l23.646,3.822    c2.855,0.461,5.743,0.693,8.636,0.693h6.779c11.609,0,22.91,3.732,32.235,10.646l10.27,7.614c3.123,2.315,5.137,5.83,5.555,9.695    l1.392,12.88c0.797,7.376-4.325,14.084-11.652,15.256c-6.844,1.095-11.842,7.054-11.73,13.983l0.731,45.341    c0.048,2.977,1.049,5.861,2.855,8.229l16.297,21.354c6.47,8.478,15.301,14.856,25.383,18.332    c7.858,2.71,12.686,10.617,11.507,18.845l-5.029,35.085c19.943,10.793,41.719,19.015,64.797,24.18l35.003-66.774    C230.253,397.376,230.956,394.523,230.956,391.627z"/>
	</g>
	<g>
		<path style="fill:#7AC943;" d="M380.255,102.065l-17.329,0.482c-6.701,0.186-12.435,4.864-13.964,11.391l-4.602,19.644    c-1.492,6.368,1.384,12.959,7.068,16.196l20.453,11.649c3.51,1.999,7.843,1.867,11.225-0.341l14.522-9.484    c3.158-2.063,5.008-5.626,4.877-9.396c-0.246-7.075,6.281-12.461,13.181-10.876l22.428,5.15c0.291,0.067,0.585,0.122,0.88,0.164    l20.491,2.941c-16.53-26.19-38.705-48.98-64.995-66.956l0.118,14.557C394.673,95.228,388.292,101.842,380.255,102.065z"/>
	</g>
	<g>
		<path style="fill:#7AC943;" d="M485.225,198.585l-32.596-7.878c-0.37-0.089-0.742-0.164-1.118-0.225l-16.915-2.728    c-15.141-2.442-30.516,2.697-41.145,13.751l-2.546,2.648c-6.204,6.452-10.426,14.549-12.163,23.33l-6.45,32.595    c-1.844,9.317-0.806,18.975,2.975,27.688c6.653,15.33,20.982,25.943,37.585,27.839l3.132,0.358    c7.117,0.813,14.326-0.021,21.07-2.437l10.666-3.821c5.907-2.116,12.506-0.267,16.454,4.61l1.403,1.733    c2.035,2.514,3.188,5.626,3.282,8.859l0.581,19.959C483.905,316.355,492,284.551,492,251    C492,232.942,489.642,215.393,485.225,198.585z"/>
	</g>
	<g>
		<path d="M436.253,340.908c-4.308-3.453-10.604-2.76-14.057,1.551c-4.57,5.704-9.513,11.265-14.689,16.529    c-3.873,3.938-3.819,10.27,0.118,14.142c1.947,1.915,4.48,2.87,7.011,2.87c2.588,0,5.174-0.998,7.131-2.988    c5.649-5.745,11.045-11.817,16.037-18.047C441.257,350.655,440.563,344.362,436.253,340.908z"/>
		<path d="M382.959,380.55c-37.816,28.664-83.643,45.277-132.524,48.043c-5.514,0.312-9.731,5.035-9.419,10.549    c0.301,5.322,4.71,9.436,9.975,9.436c0.19,0,0.381-0.005,0.574-0.017c52.865-2.991,102.479-20.998,143.477-52.073    c4.401-3.336,5.265-9.608,1.929-14.01C393.634,378.077,387.36,377.212,382.959,380.55z"/>
		<path d="M494.896,196.043c0-0.001,0-0.001-0.001-0.002c-5.703-21.701-14.771-42.49-26.954-61.792    c-17.321-27.443-40.135-50.952-67.807-69.874C356.719,34.69,305.149,19,251,19c-15.146,0-30.354,1.266-45.203,3.762    c-42.085,7.075-81.811,24.207-114.88,49.544c-48.608,37.243-80.064,89.445-88.575,146.991C0.788,229.808,0,240.474,0,251    c0,41.304,11.892,81.859,34.39,117.281c21.756,34.254,52.86,62.97,89.951,83.044c0.003,0.002,0.006,0.004,0.009,0.005    c21.045,11.389,43.712,19.848,67.373,25.144C211.07,480.805,231.014,483,251,483c48.542,0,95.643-12.83,136.211-37.103    c39.63-23.711,71.148-57.083,91.147-96.505C494.046,318.467,502,285.363,502,251C502,232.467,499.61,213.977,494.896,196.043z     M437.69,126.124l-19.768-4.54c-6.34-1.456-12.854,0.085-17.871,4.224c-5.018,4.14-7.767,10.244-7.541,16.746    c0.01,0.269-0.125,0.528-0.352,0.676l-14.521,9.484c-0.244,0.159-0.555,0.169-0.808,0.024l-20.454-11.649    c-1.82-1.037-2.758-3.186-2.28-5.226l4.602-19.646c0.493-2.104,2.346-3.614,4.506-3.674l17.329-0.482    c11.624-0.323,21.299-8.811,23.57-19.807C416.637,102.424,427.861,113.744,437.69,126.124z M20,251    c0-6.206,0.302-12.467,0.901-18.71l13.383,2.163c3.37,0.545,6.813,0.822,10.232,0.822h6.779c9.397,0,18.73,3.083,26.279,8.679    l10.271,7.614c0.879,0.651,1.451,1.649,1.568,2.737l1.392,12.88c0.225,2.084-1.22,3.976-3.289,4.307    c-11.678,1.868-20.34,12.194-20.149,24.019l0.731,45.341c0.083,5.151,1.779,10.039,4.904,14.133L89.3,376.34    c7.69,10.077,18.089,17.587,30.072,21.719c3.319,1.145,5.366,4.497,4.868,7.972l-2.924,20.401C58.475,387.17,20,321.149,20,251z     M125.892,379.152c-8.246-2.843-15.401-8.012-20.693-14.946l-16.297-21.354c-0.514-0.673-0.792-1.477-0.806-2.323l-0.731-45.34    c-0.031-1.944,1.393-3.641,3.312-3.948c12.593-2.015,21.384-13.526,20.013-26.206l-1.392-12.881    c-0.715-6.618-4.193-12.688-9.541-16.653l-10.271-7.614c-10.971-8.133-24.534-12.613-38.19-12.613h-6.779    c-2.353,0-4.721-0.19-7.041-0.565l-13.66-2.208c9.696-48.525,37.574-92.377,79.265-124.32    c29.386-22.515,64.508-38.008,101.823-44.951c5.66,4.709,10.041,10.749,12.776,17.659l0.567,1.434    c1.42,3.588,2.365,7.351,2.807,11.184l0.504,4.363c0.895,7.76-0.292,15.643-3.432,22.796l-5.438,12.388    c-3.56,8.107-9.401,14.886-16.893,19.603l-6.775,4.266c-6.864,4.321-10.877,12.039-10.473,20.141l0.916,18.302    c0.046,0.934-0.388,1.555-0.761,1.912c-0.373,0.356-1.011,0.759-1.944,0.674c-0.825-0.078-1.551-0.561-1.944-1.29l-8.321-15.453    c-2.881-5.352-7.892-9.359-13.747-10.993l-29.41-8.208c-7.729-2.157-16.01-1.516-23.315,1.804l-7.004,3.184    c-14.734,6.698-22.787,23.006-19.148,38.775c1.44,6.245,4.598,11.942,9.129,16.473l19.108,19.109    c1.077,1.076,2.11,2.224,3.072,3.41l13.1,16.157c5.785,7.135,14.361,11.222,23.544,11.221c0.031,0,0.062,0,0.093,0l35.69-0.109    c0.011,0,0.021,0,0.032,0c3.653,0,7.064,1.958,8.906,5.116c4.285,7.347,11.513,12.583,19.831,14.366l13.373,2.865    c2.94,0.63,5.452,2.505,6.892,5.146l6.458,11.84c2.589,4.747,6.506,8.552,11.327,11.002l30.352,15.424    c2.496,1.269,3.939,3.987,3.592,6.765c-0.201,1.61-0.981,3.088-2.196,4.163l-11.529,10.199c-3.25,2.875-5.774,6.543-7.299,10.607    l-2.514,6.702c-0.765,2.042-2.359,3.692-4.375,4.528l-12.28,5.092c-10.46,4.337-17.22,14.457-17.22,25.781    c0,1.273-0.313,2.543-0.904,3.672l-31.386,59.875c-16.917-4.341-33.229-10.451-48.653-18.224l4.025-28.08    C145.895,395.916,138.263,383.418,125.892,379.152z M251,463c-14.106,0-28.186-1.18-42.014-3.514l28.779-54.902    c2.087-3.981,3.191-8.462,3.191-12.958c0-3.209,1.916-6.078,4.88-7.307l12.281-5.092c7.112-2.95,12.74-8.775,15.441-15.981    l2.513-6.699c0.381-1.016,1.012-1.932,1.824-2.651l11.529-10.199c4.863-4.302,7.984-10.22,8.79-16.661    c1.391-11.118-4.386-21.999-14.376-27.077l-30.353-15.424c-1.204-0.612-2.183-1.563-2.83-2.749l-6.458-11.84    c-4.232-7.76-11.617-13.272-20.259-15.125l-13.372-2.865c-2.83-0.606-5.289-2.388-6.747-4.887    c-5.415-9.282-15.441-15.038-26.182-15.038c-0.031,0-0.062,0-0.093,0l-35.689,0.109c-0.011,0-0.021,0-0.032,0    c-3.124,0-6.042-1.39-8.009-3.817l-13.101-16.157c-1.398-1.725-2.901-3.393-4.466-4.957L97.14,188.102    c-1.878-1.877-3.186-4.238-3.783-6.826c-1.508-6.537,1.83-13.296,7.936-16.072l7.003-3.184c3.029-1.376,6.46-1.642,9.664-0.748    l29.41,8.208c0.644,0.18,1.195,0.621,1.513,1.21l8.322,15.454c3.567,6.624,10.167,11.004,17.657,11.718    c6.5,0.621,12.939-1.614,17.661-6.127s7.242-10.844,6.916-17.368l-0.916-18.302c-0.044-0.892,0.397-1.741,1.153-2.217l6.775-4.266    c10.888-6.855,19.377-16.706,24.55-28.488l5.438-12.388c4.563-10.395,6.288-21.85,4.987-33.129l-0.504-4.363    c-0.642-5.569-2.015-11.037-4.079-16.251l-0.568-1.435c-1.917-4.842-4.398-9.384-7.368-13.564l0.013,0    C236.257,39.323,243.637,39,251,39c48.317,0,94.37,13.47,133.533,39.005l0.075,9.264c0.021,2.575-2.057,4.728-4.631,4.8    l-17.328,0.482c-11.23,0.312-20.862,8.169-23.423,19.106l-4.602,19.644c-2.484,10.605,2.39,21.777,11.854,27.167l20.454,11.649    c3.21,1.828,6.752,2.737,10.287,2.737c3.952,0,7.896-1.137,11.355-3.395l14.521-9.484c6.051-3.951,9.654-10.893,9.403-18.114    c-0.004-0.104-0.014-0.383,0.281-0.626c0.298-0.244,0.567-0.179,0.667-0.158l22.427,5.15c0.557,0.128,1.127,0.234,1.699,0.316    l15.854,2.276v0c6.895,11.477,12.596,23.493,17.044,35.912l-15.49-3.744c-0.618-0.149-1.249-0.277-1.878-0.378l-16.915-2.728    c-18.367-2.962-37.045,3.276-49.946,16.693l-2.545,2.647c-7.546,7.848-12.651,17.641-14.765,28.32l-6.45,32.596    c-2.249,11.363-1,22.985,3.611,33.611c8.051,18.551,25.532,31.5,45.622,33.793l3.134,0.358c8.591,0.982,17.437-0.042,25.576-2.958    l10.667-3.821c1.9-0.681,4.035-0.084,5.31,1.49l1.4,1.729c0.654,0.808,1.03,1.824,1.061,2.86l0.506,17.383    C421.067,415.815,339.578,463,251,463z M473.113,309.467l-1.166-1.441c-4.792-5.919-11.933-9.181-19.268-9.181    c-2.788,0-5.605,0.472-8.331,1.448l-10.667,3.82c-5.272,1.889-11.003,2.552-16.563,1.916l-3.133-0.358    c-13.011-1.485-24.332-9.871-29.545-21.884c-2.987-6.881-3.796-14.408-2.34-21.766l6.45-32.596    c1.369-6.916,4.675-13.258,9.563-18.34l2.545-2.647c8.355-8.688,20.449-12.729,32.346-10.81l16.913,2.728    c0.12,0.02,0.24,0.043,0.361,0.073l26.693,6.451C480.311,221.342,482,236.156,482,251    C482,271.028,479.021,290.591,473.113,309.467z"/>
	</g>
</g>















</svg>
