<?xml version="1.0" encoding="iso-8859-1"?>
<!-- Generator: Adobe Illustrator 19.0.0, SVG Export Plug-In . SVG Version: 6.00 Build 0)  -->
<svg version="1.1" id="Capa_1" xmlns="http://www.w3.org/2000/svg" xmlns:xlink="http://www.w3.org/1999/xlink" x="0px" y="0px"
	 viewBox="0 0 58 58" style="enable-background:new 0 0 58 58;" xml:space="preserve">
<g id="XMLID_71_">
	<path id="XMLID_136_" style="fill:#F5D698;" d="M52,15.568C47.839,6.887,39.771,1,30.5,1C16.969,1,6,13.536,6,29
		c0,15.464,10.969,28,24.5,28c9.271,0,17.339-5.887,21.5-14.568V15.568z"/>
	<path id="XMLID_135_" style="fill:#EDBC64;" d="M6,29C6,14.698,15.385,2.908,27.5,1.216C26.516,1.079,25.516,1,24.5,1
		C10.969,1,0,13.536,0,29s10.969,28,24.5,28c1.016,0,2.016-0.079,3-0.216C15.385,55.092,6,43.302,6,29"/>
	<path id="XMLID_134_" style="fill:#F6D38B;" d="M5.998,30H0c0.021,0.673,0.059,1.34,0.119,2h6.003
		C6.061,31.341,6.019,30.674,5.998,30"/>
	<path id="XMLID_133_" style="fill:#F6D38B;" d="M6.227,25H0.23c-0.082,0.659-0.143,1.327-0.184,2h5.999
		C6.088,26.328,6.144,25.66,6.227,25"/>
	<path id="XMLID_132_" style="fill:#F6D38B;" d="M6.549,35H0.547c0.131,0.676,0.28,1.343,0.451,2h5.999
		C6.826,36.344,6.678,35.677,6.549,35"/>
	<path id="XMLID_131_" style="fill:#F6D38B;" d="M7.947,40H1.943c0.255,0.682,0.537,1.347,0.837,2h6.001
		C8.481,41.349,8.202,40.682,7.947,40"/>
	<path id="XMLID_130_" style="fill:#F6D38B;" d="M7.273,20H1.278c-0.194,0.657-0.376,1.322-0.528,2h6.007
		C6.908,21.325,7.077,20.655,7.273,20"/>
	<path id="XMLID_129_" style="fill:#F6D38B;" d="M9.264,15h-6c-0.33,0.651-0.641,1.317-0.925,2h6.004
		C8.627,16.318,8.934,15.651,9.264,15"/>
	<path id="XMLID_128_" style="fill:#F6D38B;" d="M13.345,9H7.338c-0.568,0.636-1.109,1.303-1.622,2h6.005
		C12.234,10.304,12.776,9.637,13.345,9"/>
	<path id="XMLID_127_" style="fill:#F6D38B;" d="M19.46,4.001h-6.013c-1.023,0.59-2.002,1.258-2.937,2h6.009
		C17.455,5.259,18.437,4.591,19.46,4.001"/>
	<path id="XMLID_126_" style="fill:#F6D38B;" d="M11.019,46H5.016c0.464,0.693,0.954,1.36,1.473,2h6.007
		C11.977,47.36,11.484,46.693,11.019,46"/>
	<path id="XMLID_125_" style="fill:#F6D38B;" d="M9.333,51c0.803,0.723,1.644,1.394,2.523,2h6.015c-0.885-0.607-1.734-1.274-2.541-2
		H9.333z"/>
	<path id="XMLID_108_" style="fill:#EFC16D;" d="M30.584,51.524H30.5c-0.7,0-1.405-0.042-2.096-0.124
		c-0.548-0.066-0.94-0.564-0.874-1.112c0.065-0.548,0.547-0.931,1.112-0.875c0.609,0.073,1.236,0.111,1.857,0.111
		c0.553,0,1.041,0.447,1.041,1C31.541,51.076,31.137,51.524,30.584,51.524 M36.398,50.447c-0.404,0-0.785-0.247-0.936-0.648
		c-0.195-0.517,0.066-1.094,0.583-1.288c0.576-0.218,1.151-0.473,1.706-0.757c0.493-0.255,1.095-0.059,1.347,0.433
		c0.252,0.491,0.059,1.093-0.433,1.346c-0.623,0.319-1.267,0.605-1.916,0.849C36.635,50.426,36.516,50.447,36.398,50.447
		 M22.865,49.683c-0.152,0-0.307-0.034-0.451-0.108c-0.618-0.313-1.227-0.666-1.81-1.048c-0.462-0.303-0.591-0.922-0.289-1.384
		c0.304-0.461,0.923-0.592,1.385-0.289c0.522,0.342,1.066,0.657,1.618,0.938c0.493,0.25,0.689,0.851,0.439,1.344
		C23.582,49.482,23.23,49.683,22.865,49.683 M42.975,46.126c-0.254,0-0.508-0.097-0.702-0.289c-0.394-0.388-0.397-1.021-0.01-1.414
		c0.438-0.443,0.86-0.916,1.259-1.404c0.348-0.427,0.977-0.493,1.406-0.144c0.429,0.348,0.493,0.978,0.145,1.407
		c-0.438,0.537-0.904,1.057-1.386,1.546C43.49,46.026,43.232,46.126,42.975,46.126 M16.759,44.716c-0.29,0-0.576-0.125-0.774-0.365
		c-0.431-0.525-0.847-1.085-1.238-1.664c-0.31-0.458-0.19-1.079,0.268-1.389c0.459-0.309,1.079-0.189,1.389,0.269
		c0.358,0.528,0.737,1.038,1.129,1.515c0.35,0.427,0.288,1.057-0.14,1.408C17.207,44.643,16.981,44.716,16.759,44.716
		 M47.368,39.582c-0.133,0-0.269-0.027-0.398-0.084c-0.506-0.221-0.738-0.81-0.518-1.316c0.251-0.577,0.48-1.172,0.683-1.77
		c0.177-0.523,0.744-0.803,1.267-0.628c0.523,0.177,0.806,0.744,0.628,1.267c-0.22,0.652-0.47,1.301-0.743,1.93
		C48.122,39.356,47.755,39.582,47.368,39.582 M12.945,37.813c-0.416,0-0.805-0.262-0.947-0.678
		c-0.221-0.649-0.418-1.317-0.584-1.983c-0.133-0.536,0.193-1.078,0.73-1.211c0.534-0.136,1.078,0.192,1.212,0.728
		c0.152,0.611,0.332,1.224,0.536,1.82c0.179,0.522-0.101,1.091-0.623,1.269C13.161,37.794,13.053,37.813,12.945,37.813
		 M49.261,31.917c-0.025,0-0.052-0.001-0.078-0.003c-0.551-0.042-0.963-0.523-0.92-1.074c0.047-0.603,0.069-1.222,0.069-1.839
		c0-0.553,0.448-1.032,1-1.032c0.554,0,1,0.415,1,0.968V29c0,0.669-0.024,1.339-0.075,1.993
		C50.216,31.519,49.778,31.917,49.261,31.917 M11.666,30.011c-0.552,0-1-0.438-1-0.989V29c0-0.676,0.028-1.361,0.081-2.037
		c0.044-0.551,0.535-0.958,1.075-0.919c0.551,0.044,0.962,0.525,0.919,1.076c-0.049,0.624-0.075,1.257-0.075,1.88
		C12.666,29.553,12.22,30.011,11.666,30.011 M48.604,24.048c-0.447,0-0.855-0.302-0.969-0.756c-0.153-0.611-0.335-1.223-0.54-1.819
		c-0.179-0.523,0.1-1.092,0.622-1.271c0.521-0.18,1.091,0.099,1.271,0.621c0.222,0.65,0.42,1.317,0.587,1.983
		c0.135,0.536-0.19,1.079-0.727,1.214C48.766,24.04,48.685,24.048,48.604,24.048 M12.932,22.23c-0.106,0-0.215-0.018-0.321-0.054
		c-0.523-0.177-0.803-0.745-0.626-1.268c0.223-0.654,0.473-1.303,0.748-1.929c0.222-0.505,0.809-0.739,1.317-0.514
		c0.506,0.222,0.736,0.811,0.515,1.317c-0.252,0.574-0.483,1.169-0.686,1.768C13.737,21.967,13.349,22.23,12.932,22.23
		 M45.404,16.837c-0.32,0-0.636-0.154-0.829-0.439c-0.352-0.52-0.732-1.029-1.131-1.513c-0.351-0.426-0.289-1.057,0.138-1.408
		c0.427-0.35,1.056-0.289,1.407,0.137c0.438,0.532,0.855,1.092,1.242,1.662c0.31,0.458,0.189,1.079-0.267,1.389
		C45.791,16.781,45.598,16.837,45.404,16.837 M16.729,15.316c-0.222,0-0.446-0.074-0.632-0.226
		c-0.428-0.349-0.491-0.979-0.141-1.407c0.439-0.538,0.906-1.057,1.389-1.544c0.39-0.392,1.023-0.393,1.414-0.006
		c0.392,0.389,0.395,1.022,0.006,1.414c-0.438,0.441-0.861,0.913-1.261,1.402C17.308,15.191,17.02,15.316,16.729,15.316
		 M39.811,11.288c-0.188,0-0.377-0.052-0.545-0.162c-0.523-0.342-1.068-0.656-1.62-0.933c-0.493-0.249-0.691-0.851-0.442-1.344
		c0.248-0.493,0.847-0.692,1.343-0.443c0.617,0.311,1.227,0.663,1.812,1.045c0.463,0.302,0.594,0.921,0.292,1.384
		C40.457,11.128,40.137,11.288,39.811,11.288 M22.829,10.337c-0.364,0-0.715-0.2-0.892-0.546c-0.251-0.492-0.056-1.095,0.435-1.345
		c0.625-0.319,1.271-0.603,1.916-0.845c0.523-0.194,1.095,0.07,1.288,0.587c0.193,0.517-0.069,1.093-0.586,1.286
		c-0.577,0.216-1.151,0.469-1.709,0.753C23.137,10.301,22.981,10.337,22.829,10.337 M32.436,8.588c-0.038,0-0.077-0.002-0.117-0.007
		c-0.6-0.07-1.212-0.105-1.818-0.105c-0.553,0-1.021-0.448-1.021-1c0-0.553,0.427-1,0.979-1v1l0.014-1
		c0.705,0.019,1.402,0.04,2.08,0.119c0.548,0.064,0.941,0.56,0.877,1.109C33.368,8.213,32.937,8.588,32.436,8.588"/>
	<path id="XMLID_107_" style="fill:#A5A5A4;" d="M53.344,0h-8.688c-2.096,0-3.847,1.393-4.431,3.296
		C45.242,5.779,49.39,10.123,52,15.568v26.864c-2.61,5.445-6.758,9.789-11.774,12.272C40.81,56.607,42.561,58,44.656,58h8.688
		C55.915,58,58,55.915,58,53.344V4.656C58,2.084,55.915,0,53.344,0"/>
	<path id="XMLID_106_" style="fill:#556180;" d="M46,50.673v1.929C46,53.375,46.625,54,47.396,54h3.206
		C51.375,54,52,53.375,52,52.603v-10.17C50.479,45.604,48.432,48.398,46,50.673"/>
	<path id="XMLID_70_" style="fill:#556180;" d="M50.603,4h-3.206C46.626,4,46,4.625,46,5.397v1.93c2.433,2.275,4.479,5.069,6,8.241
		V5.397C52,4.625,51.375,4,50.603,4"/>
</g>
<g>
</g>
<g>
</g>
<g>
</g>
<g>
</g>
<g>
</g>
<g>
</g>
<g>
</g>
<g>
</g>
<g>
</g>
<g>
</g>
<g>
</g>
<g>
</g>
<g>
</g>
<g>
</g>
<g>
</g>
</svg>
