<?xml version="1.0" encoding="iso-8859-1"?>
<!-- Generator: Adobe Illustrator 19.0.0, SVG Export Plug-In . SVG Version: 6.00 Build 0)  -->
<svg version="1.1" id="Layer_1" xmlns="http://www.w3.org/2000/svg" xmlns:xlink="http://www.w3.org/1999/xlink" x="0px" y="0px"
	 viewBox="0 0 460 460" style="enable-background:new 0 0 460 460;" xml:space="preserve">
<g id="XMLID_1526_">
	<g id="Sheet_3">
		<path id="XMLID_996_" style="fill:#AAAFAD;" d="M403.318,13.736l42.929,42.874C455.053,65.404,460,77.333,460,89.77v226.781
			c0,12.95-10.512,23.448-23.478,23.448H213.478C200.512,340,190,329.503,190,316.552V23.448C190,10.498,200.512,0,213.478,0
			h156.636C382.568,0,394.512,4.941,403.318,13.736z"/>
		<path id="XMLID_997_" style="fill:#C3C9C7;" d="M366.087,46.897V0h4.029c12.454,0,24.397,4.941,33.203,13.736l42.928,42.873
			C455.053,65.404,460,77.332,460,89.77v4.023h-46.957C387.11,93.793,366.087,72.797,366.087,46.897z"/>
	</g>
	<g id="Sheet_2">
		<path id="XMLID_995_" style="fill:#8A8E8C;" d="M376.066,163.333L395,340h-30V153.39l0,0
			C370.687,153.39,375.46,157.678,376.066,163.333z"/>
		<path id="XMLID_993_" style="fill:#C3C9C7;" d="M308.318,73.736l42.929,42.874c8.806,8.794,13.753,20.723,13.753,33.16v226.781
			c0,12.95-10.512,23.448-23.478,23.448H118.478C105.512,400,95,389.503,95,376.552V83.448C95,70.498,105.512,60,118.478,60h156.636
			C287.568,60,299.512,64.941,308.318,73.736z"/>
		<path id="XMLID_994_" style="fill:#D2D6D5;" d="M271.087,106.897V60h4.029c12.454,0,24.397,4.941,33.203,13.736l42.928,42.873
			C360.053,125.404,365,137.332,365,149.77v4.023h-46.957C292.11,153.793,271.087,132.797,271.087,106.897z"/>
	</g>
	<g id="Sheet_1">
		<path id="XMLID_991_" style="fill:#AAAFAD;" d="M281.066,223.333L300,400h-30V213.39l0,0
			C275.687,213.39,280.46,217.678,281.066,223.333z"/>
		<path id="XMLID_984_" style="fill:#E0E0E0;" d="M213.318,133.736l42.929,42.874c8.806,8.794,13.753,20.723,13.753,33.16v226.781
			c0,12.95-10.512,23.448-23.478,23.448H23.478C10.512,460,0,449.503,0,436.552V143.448C0,130.498,10.512,120,23.478,120h156.636
			C192.568,120,204.512,124.941,213.318,133.736z"/>
		<path id="XMLID_985_" style="fill:#F2F2F2;" d="M176.087,166.897V120h4.029c12.454,0,24.397,4.941,33.203,13.736l42.928,42.873
			C265.053,185.404,270,197.332,270,209.77v4.023h-46.957C197.11,213.793,176.087,192.797,176.087,166.897z"/>
	</g>
	<g id="Print_1_">
		<path id="XMLID_983_" style="fill:#F49638;" d="M146.535,379.197L146.535,379.197c-5.716,5.716-14.985,5.716-20.701,0
			l-28.982-28.982c-5.716-5.716-5.716-14.985,0-20.701l0,0c5.716-5.716,14.985-5.716,20.701,0l28.982,28.982
			C152.251,364.211,152.251,373.479,146.535,379.197z"/>
		<path id="XMLID_981_" style="fill:#AD1251;" d="M175.517,366.775L175.517,366.775c-5.717,5.716-14.985,5.716-20.701,0
			l-62.104-62.104c-5.716-5.716-5.716-14.985,0-20.701l0,0c5.716-5.716,14.985-5.716,20.701,0l62.104,62.104
			C181.233,351.79,181.233,361.059,175.517,366.775z"/>
		<path id="XMLID_980_" style="fill:#7FA3BA;" d="M179.657,329.513L179.657,329.513c-5.716,5.716-14.985,5.716-20.701,0
			l-62.104-62.104c-5.716-5.716-5.716-14.985,0-20.701l0,0c5.716-5.716,14.985-5.716,20.701,0l62.104,62.104
			C185.373,314.529,185.373,323.796,179.657,329.513z"/>
		<path id="XMLID_979_" style="fill:#E25C56;" d="M175.517,283.97L175.517,283.97c-5.717,5.716-14.985,5.716-20.701,0
			l-28.982-28.982c-5.716-5.716-5.716-14.985,0-20.701l0,0c5.716-5.716,14.985-5.716,20.701,0l28.982,28.982
			C181.233,268.986,181.233,278.254,175.517,283.97z"/>
		<path id="XMLID_982_" style="fill:#F49638;" d="M76.151,308.813L76.151,308.813c-5.716,5.716-14.985,5.716-20.701,0l0,0
			c-5.716-5.716-5.716-14.985,0-20.701l0,0c5.716-5.716,14.985-5.716,20.701,0l0,0C81.867,293.827,81.867,303.095,76.151,308.813z"
			/>
		<path id="XMLID_87_" style="fill:#E25C56;" d="M216.919,325.373L216.919,325.373c-5.716,5.716-14.985,5.716-20.701,0l0,0
			c-5.716-5.716-5.716-14.985,0-20.701l0,0c5.716-5.716,14.985-5.716,20.701,0l0,0C222.635,310.388,222.635,319.656,216.919,325.373
			z"/>
	</g>
</g>
<g>
</g>
<g>
</g>
<g>
</g>
<g>
</g>
<g>
</g>
<g>
</g>
<g>
</g>
<g>
</g>
<g>
</g>
<g>
</g>
<g>
</g>
<g>
</g>
<g>
</g>
<g>
</g>
<g>
</g>
</svg>
