<?xml version="1.0" encoding="iso-8859-1"?>
<!-- Generator: Adobe Illustrator 19.0.0, SVG Export Plug-In . SVG Version: 6.00 Build 0)  -->
<svg version="1.1" id="Layer_1" xmlns="http://www.w3.org/2000/svg" xmlns:xlink="http://www.w3.org/1999/xlink" x="0px" y="0px"
	 viewBox="0 0 512 512" style="enable-background:new 0 0 512 512;" xml:space="preserve">
<circle style="fill:#273B7A;" cx="256" cy="256" r="256"/>
<path style="fill:#121149;" d="M506.923,306.941L287.125,87.143l-22.761,225.835l-54.451-54.451l-37.319,119.965l129.383,129.383
	C404.842,489.22,486.295,409.105,506.923,306.941z"/>
<path style="fill:#EAA22F;" d="M212.423,339.028c0-24.067,19.509-43.577,43.577-43.577s43.577,19.509,43.577,43.577
	S256,444.25,256,444.25S212.423,363.096,212.423,339.028z"/>
<path style="fill:#E09112;" d="M299.577,339.028c0-24.067-19.509-43.577-43.577-43.577c-0.193,0-0.383,0.012-0.574,0.014v147.706
	c0.371,0.696,0.574,1.077,0.574,1.077S299.577,363.094,299.577,339.028z"/>
<path style="fill:#FFC61B;" d="M224.873,347.834c0-17.191,13.936-31.127,31.127-31.127s31.127,13.936,31.127,31.127
	S256,422.993,256,422.993S224.873,365.025,224.873,347.834z"/>
<path style="fill:#EAA22F;" d="M287.127,347.834c0-17.191-13.936-31.127-31.127-31.127c-0.193,0-0.381,0.026-0.574,0.029v105.177
	c0.36,0.679,0.574,1.079,0.574,1.079S287.127,365.025,287.127,347.834z"/>
<path style="fill:#FEE187;" d="M328.202,209.263c0-53.922-25.862-119.648-61.949-139.976c-6.37-3.589-14.139-3.589-20.509,0
	c-36.087,20.33-61.949,86.056-61.949,139.976c0,60.013,21.256,104.231,30.944,123.775h82.516
	C306.947,313.492,328.202,276.777,328.202,209.263z"/>
<path style="fill:#FFC61B;" d="M328.202,209.263c0-53.922-25.862-119.648-61.949-139.976c-3.358-1.891-7.102-2.758-10.828-2.655
	V333.04h41.832C306.947,313.492,328.202,276.777,328.202,209.263z"/>
<path style="fill:#FF5419;" d="M266.254,69.285c-6.37-3.589-14.139-3.589-20.509,0c-15.508,8.737-29.118,25.869-39.608,46.833
	h99.726C295.372,95.154,281.762,78.022,266.254,69.285z"/>
<path style="fill:#C92F00;" d="M266.254,69.285c-3.358-1.891-7.102-2.757-10.828-2.655v49.488h50.438
	C295.372,95.154,281.762,78.022,266.254,69.285z"/>
<circle style="fill:#E09112;" cx="256" cy="188.63" r="41.258"/>
<path style="fill:#FF5419;" d="M256,147.375c-0.193,0-0.383,0.012-0.574,0.014v82.487c0.191,0.003,0.381,0.014,0.574,0.014
	c22.787,0,41.258-18.472,41.258-41.258S278.787,147.375,256,147.375z"/>
<circle style="fill:#386895;" cx="256" cy="188.63" r="30.944"/>
<path style="fill:#273B7A;" d="M256,157.689c-0.193,0-0.381,0.026-0.574,0.029v61.83c0.193,0.003,0.381,0.029,0.574,0.029
	c17.089,0,30.944-13.853,30.944-30.944C286.944,171.544,273.089,157.689,256,157.689z"/>
<path style="fill:#FF5419;" d="M194.624,246.305c0,0-72.521,21.08-44.056,88.111c11.536,27.167,22.028,44.077,22.028,44.077h39.348
	c0,0-28.925-44.077,0-66.105L194.624,246.305z"/>
<path style="fill:#C92F00;" d="M317.376,246.305c0,0,72.521,21.08,44.056,88.111c-11.536,27.167-22.028,44.077-22.028,44.077
	h-39.348c0,0,28.925-44.077,0-66.105L317.376,246.305z"/>
<path style="fill:#FF5419;" d="M261.73,374.296H250.27c-2.532,0-4.584-2.053-4.584-4.584v-93.977c0-2.532,2.053-4.584,4.584-4.584
	h11.461c2.532,0,4.584,2.053,4.584,4.584v93.977C266.314,372.245,264.263,374.296,261.73,374.296z"/>
<path style="fill:#C92F00;" d="M261.73,271.15h-6.304v103.146h6.304c2.532,0,4.584-2.053,4.584-4.584v-93.977
	C266.314,273.203,264.263,271.15,261.73,271.15z"/>
<g>
</g>
<g>
</g>
<g>
</g>
<g>
</g>
<g>
</g>
<g>
</g>
<g>
</g>
<g>
</g>
<g>
</g>
<g>
</g>
<g>
</g>
<g>
</g>
<g>
</g>
<g>
</g>
<g>
</g>
</svg>
