<?xml version="1.0" encoding="iso-8859-1"?>
<!-- Generator: Adobe Illustrator 19.0.0, SVG Export Plug-In . SVG Version: 6.00 Build 0)  -->
<svg version="1.1" id="Layer_1" xmlns="http://www.w3.org/2000/svg" xmlns:xlink="http://www.w3.org/1999/xlink" x="0px" y="0px"
	 viewBox="0 0 512 512" style="enable-background:new 0 0 512 512;" xml:space="preserve">
<circle style="fill:#2D4452;" cx="256" cy="256" r="256"/>
<g>
	<rect x="252" y="320" style="fill:#F5F5F5;" width="8" height="180"/>
	<circle style="fill:#F5F5F5;" cx="216" cy="408" r="36"/>
</g>
<path style="fill:#E6E6E6;" d="M216,372c-2.752,0-5.424,0.336-8,0.92c16.028,3.636,28,17.944,28,35.08s-11.972,31.436-28,35.08
	c2.576,0.584,5.248,0.92,8,0.92c19.884,0,36-16.116,36-36S235.884,372,216,372z"/>
<circle style="fill:#F5F5F5;" cx="256" cy="388" r="36"/>
<path style="fill:#E6E6E6;" d="M256,352c-1.352,0-2.684,0.088-4,0.236c18,1.992,32,17.24,32,35.764s-14,33.772-32,35.764
	c1.316,0.14,2.648,0.236,4,0.236c19.884,0,36-16.116,36-36S275.884,352,256,352z"/>
<circle style="fill:#F5F5F5;" cx="160" cy="428" r="36"/>
<path style="fill:#E6E6E6;" d="M160,392c-2.048,0-4.044,0.212-6,0.54c17.02,2.864,30,17.624,30,35.46s-12.98,32.596-30,35.46
	c1.956,0.328,3.952,0.54,6,0.54c19.884,0,36-16.116,36-36S179.884,392,160,392z"/>
<circle style="fill:#F5F5F5;" cx="296" cy="408" r="36"/>
<path style="fill:#E6E6E6;" d="M296,372c-1.352,0-2.684,0.088-4,0.236c18,1.992,32,17.24,32,35.764s-14,33.772-32,35.764
	c1.316,0.144,2.648,0.236,4,0.236c19.884,0,36-16.116,36-36S315.884,372,296,372z"/>
<circle style="fill:#F5F5F5;" cx="352" cy="428" r="36"/>
<g>
	<path style="fill:#E6E6E6;" d="M352,392c-1.352,0-2.684,0.088-4,0.236c18,1.992,32,17.24,32,35.764s-14,33.772-32,35.764
		c1.316,0.144,2.648,0.236,4,0.236c19.884,0,36-16.116,36-36S371.884,392,352,392z"/>
	<path style="fill:#E6E6E6;" d="M256,448C136.908,448,36.012,377.252,1.112,279.416C12.944,409.816,122.516,512,256,512
		s243.056-102.184,254.892-232.584C475.988,377.252,375.092,448,256,448z"/>
</g>
<path style="fill:#FFD464;" d="M256.668,267.164c-11.1,0-18.312,7.22-18.312,18.312c0,11.096,1.564,31.152,18.312,41.204
	c16.748-10.052,18.312-30.1,18.312-41.204C274.984,274.38,267.772,267.164,256.668,267.164z"/>
<path style="fill:#C23527;" d="M256.668,271.744c-5.876,0-9.156,3.288-9.156,9.156c0,5.884,0.292,17.58,9.156,22.896
	c8.864-5.316,9.156-17.012,9.156-22.896C265.828,275.032,262.548,271.744,256.668,271.744z"/>
<ellipse style="fill:#242424;" cx="256" cy="240" rx="20" ry="8"/>
<path style="fill:#CC584C;" d="M226.012,84c-10.86,16-19.7,37.636-19.7,59.952C206.312,220.996,229.2,268,229.2,268h27.468h27.468
	c0,0,22.888-47.008,22.888-124.048c0-21.108-9.28-43.952-20.512-59.952H226.012z"/>
<path style="fill:#BF5347;" d="M286.512,84h-13.74c11.232,16,20.516,38.844,20.516,59.952C293.288,220.992,270.4,268,270.4,268
	h13.74c0,0,22.888-47.008,22.888-124.048C307.028,122.844,297.744,100,286.512,84z"/>
<path style="fill:#E6E6E6;" d="M229.2,239.372c0,3.68-2.076,6.772-4.58,9.484L197.152,280.9c-2.5,2.716-9.156,3.684-9.156,0v-32.044
	c0-3.684,5.976-7.3,9.156-9.156l27.468-18.308c0,0,4.58,0.9,4.58,4.58V239.372z"/>
<path style="fill:#CCCCCC;" d="M224.024,221.392l-4.552,3.22c0.152,0.404,0.528,0.844,0.528,1.356v13.408
	c0,3.68-2.056,6.772-4.556,9.484l-27.456,32.044c0,3.684,6.66,2.716,9.164,0l26.868-32.044c2.5-2.712,3.98-5.804,3.98-9.484v-13.408
	C228,222.28,224.024,221.392,224.024,221.392z"/>
<path style="fill:#E6E6E6;" d="M284.14,239.372c0,3.68,2.08,6.772,4.58,9.484l27.464,32.044c2.5,2.716,9.156,3.684,9.156,0v-32.044
	c0-3.684-5.976-7.3-9.156-9.156l-27.464-18.308c0,0-4.58,0.9-4.58,4.58V239.372z"/>
<path style="fill:#CCCCCC;" d="M315.512,239.7l-27.136-18.308c0,0-3.22,0.68-4.156,3.22l22.628,15.088
	c3.184,1.856,9.152,5.472,9.152,9.156V280.9c4,2.716,8,3.684,8,0v-32.044C324,245.172,318.696,241.556,315.512,239.7z"/>
<circle style="fill:#263740;" cx="256.68" cy="157.28" r="22.892"/>
<circle style="fill:#F5F5F5;" cx="256.68" cy="157.28" r="18.312"/>
<g>
	<circle style="fill:#E6E6E6;" cx="252" cy="440" r="36"/>
	<circle style="fill:#E6E6E6;" cx="196" cy="424" r="36"/>
	<path style="fill:#E6E6E6;" d="M140,408c-19.884,0-36,16.116-36,36c0,9.82,3.944,18.716,10.32,25.212
		c4.828,3.216,9.788,6.24,14.836,9.12C132.58,479.412,136.22,480,140,480c19.884,0,36-16.116,36-36S159.884,408,140,408z"/>
	<circle style="fill:#E6E6E6;" cx="316" cy="424" r="36"/>
	<path style="fill:#E6E6E6;" d="M372,408c-19.884,0-36,16.116-36,36s16.116,36,36,36c3.78,0,7.416-0.588,10.84-1.668
		c5.052-2.888,10.012-5.912,14.84-9.124C404.056,462.712,408,453.82,408,444C408,424.116,391.884,408,372,408z"/>
	<circle style="fill:#E6E6E6;" cx="260" cy="440" r="36"/>
	<ellipse style="fill:#E6E6E6;" cx="256.68" cy="248.84" rx="4.584" ry="36.62"/>
</g>
<path style="fill:#263740;" d="M256.668,93.204c11.104,0,21.46-3.092,30.352-8.396C276.752,69.028,264.752,56.852,256.668,52
	c-8.24,4.944-20.548,16.664-30.94,32.456C234.752,89.968,245.324,93.204,256.668,93.204z"/>
<path style="fill:#1E2C33;" d="M275.9,89.964c3.908-1.348,7.628-3.076,11.124-5.156C276.76,69.028,264.76,56.852,256.672,52
	c-2.616,1.572-5.668,3.892-8.912,6.744C256.372,66.016,266.384,76.848,275.9,89.964z"/>
<g>
	<path style="fill:#CCCCCC;" d="M392.132,414.152C386.392,410.268,379.452,408,372,408c-1.352,0-2.684,0.088-4,0.236
		c7.36,0.816,14.032,3.88,19.372,8.44C388.972,415.852,390.556,415.004,392.132,414.152z"/>
	<path style="fill:#CCCCCC;" d="M343.884,421.552c2-2.504,4.336-4.716,6.92-6.6C346.78,399.452,332.752,388,316,388
		c-1.352,0-2.684,0.088-4,0.236C329.196,390.136,342.712,404.144,343.884,421.552z"/>
	<path style="fill:#CCCCCC;" d="M223.484,418.084c1.832-2.384,3.948-4.532,6.312-6.388C224.768,397.884,211.556,388,196,388
		c-1.352,0-2.684,0.088-4,0.236C208.036,390.008,220.872,402.316,223.484,418.084z"/>
	<path style="fill:#CCCCCC;" d="M160.12,421.584c0.152-2.28,0.516-4.496,1.072-6.636C155.244,410.596,147.932,408,140,408
		c-1.352,0-2.684,0.088-4,0.236C145.752,409.312,154.308,414.304,160.12,421.584z"/>
</g>
<g>
	<path style="fill:#FFD464;" d="M152,76c0,4-4,8-8,8c4,0,8,4,8,8c0-4,4-8,8-8C156,84,152,80,152,76z"/>
	<path style="fill:#FFD464;" d="M140,160c0,4-4,8-8,8c4,0,8,4,8,8c0-4,4-8,8-8C144,168,140,164,140,160z"/>
	<path style="fill:#FFD464;" d="M396,344c0,4-4,8-8,8c4,0,8,4,8,8c0-4,4-8,8-8C400,352,396,348,396,344z"/>
	<path style="fill:#FFD464;" d="M376,364c0,4-4,8-8,8c4,0,8,4,8,8c0-4,4-8,8-8C380,372,376,368,376,364z"/>
	<path style="fill:#FFD464;" d="M360,332c0,4-4,8-8,8c4,0,8,4,8,8c0-4,4-8,8-8C364,340,360,336,360,332z"/>
	<path style="fill:#FFD464;" d="M68,116c0,4-4,8-8,8c4,0,8,4,8,8c0-4,4-8,8-8C72,124,68,120,68,116z"/>
	<path style="fill:#FFD464;" d="M368,52c0,4-4,8-8,8c4,0,8,4,8,8c0-4,4-8,8-8C372,60,368,56,368,52z"/>
	<path style="fill:#FFD464;" d="M196,92c0,4-4,8-8,8c4,0,8,4,8,8c0-4,4-8,8-8C200,100,196,96,196,92z"/>
	<path style="fill:#FFD464;" d="M228,20c0,4-4,8-8,8c4,0,8,4,8,8c0-4,4-8,8-8C232,28,228,24,228,20z"/>
	<path style="fill:#FFD464;" d="M332,192c0,4-4,8-8,8c4,0,8,4,8,8c0-4,4-8,8-8C336,200,332,196,332,192z"/>
	<path style="fill:#FFD464;" d="M428,160c0,8-4,12-12,12c8,0,12,4,12,12c0-8,4-12,12-12C432,172,428,168,428,160z"/>
	<path style="fill:#FFD464;" d="M396,216c0,13.332-6.668,20-20,20c13.332,0,20,6.668,20,20c0-13.332,6.668-20,20-20
		C402.668,236,396,229.332,396,216z"/>
	<path style="fill:#FFD464;" d="M436,108c0,8-4,12-12,12c8,0,12,4,12,12c0-8,4-12,12-12C440,120,436,116,436,108z"/>
	<path style="fill:#FFD464;" d="M396,292c0,8-4,12-12,12c8,0,12,4,12,12c0-8,4-12,12-12C400,304,396,300,396,292z"/>
	<path style="fill:#FFD464;" d="M184,52c0,8-4,12-12,12c8,0,12,4,12,12c0-8,4-12,12-12C188,64,184,60,184,52z"/>
	<path style="fill:#FFD464;" d="M124,320c0,8-4,12-12,12c8,0,12,4,12,12c0-8,4-12,12-12C128,332,124,328,124,320z"/>
	<path style="fill:#FFD464;" d="M76,224c0,8-4,12-12,12c8,0,12,4,12,12c0-8,4-12,12-12C80,236,76,232,76,224z"/>
</g>
<g>
</g>
<g>
</g>
<g>
</g>
<g>
</g>
<g>
</g>
<g>
</g>
<g>
</g>
<g>
</g>
<g>
</g>
<g>
</g>
<g>
</g>
<g>
</g>
<g>
</g>
<g>
</g>
<g>
</g>
</svg>
