<svg width="0" height="0" class="hidden">
  <symbol fill="none" xmlns="http://www.w3.org/2000/svg" viewBox="0 0 24 24" id="instagram">
    <path d="M17.34 5.46a1.2 1.2 0 100 2.4 1.2 1.2 0 000-2.4zm4.6 2.42a7.588 7.588 0 00-.46-2.43 4.94 4.94 0 00-1.16-1.77 4.7 4.7 0 00-1.77-1.15 7.3 7.3 0 00-2.43-.47C15.06 2 14.72 2 12 2s-3.06 0-4.12.06a7.3 7.3 0 00-2.43.47 4.78 4.78 0 00-1.77 1.15 4.7 4.7 0 00-1.15 1.77 7.3 7.3 0 00-.47 2.43C2 8.94 2 9.28 2 12s0 3.06.06 4.12a7.3 7.3 0 00.47 2.43 4.7 4.7 0 001.15 1.77 4.78 4.78 0 001.77 1.15 7.3 7.3 0 002.43.47C8.94 22 9.28 22 12 22s3.06 0 4.12-.06a7.3 7.3 0 002.43-.47 4.7 4.7 0 001.77-1.15 4.85 4.85 0 001.16-1.77c.285-.78.44-1.6.46-2.43 0-1.06.06-1.4.06-4.12s0-3.06-.06-4.12zM20.14 16a5.61 5.61 0 01-.34 1.86 3.06 3.06 0 01-.75 1.15c-.324.33-.717.586-1.15.75a5.61 5.61 0 01-1.86.34c-1 .05-1.37.06-4 .06s-3 0-4-.06a5.73 5.73 0 01-1.94-.3 3.27 3.27 0 01-1.1-.75 3 3 0 01-.74-1.15 5.54 5.54 0 01-.4-1.9c0-1-.06-1.37-.06-4s0-3 .06-4a5.54 5.54 0 01.35-1.9A3 3 0 015 5a3.14 3.14 0 011.1-.8A5.73 5.73 0 018 3.86c1 0 1.37-.06 4-.06s3 0 4 .06a5.61 5.61 0 011.86.34 3.06 3.06 0 011.19.8c.328.307.584.683.75 1.1.222.609.337 1.252.34 1.9.05 1 .06 1.37.06 4s-.01 3-.06 4zM12 6.87A5.13 5.13 0 1017.14 12 5.12 5.12 0 0012 6.87zm0 8.46a3.33 3.33 0 110-6.66 3.33 3.33 0 010 6.66z" fill="#fff"></path>
  </symbol>
  <symbol fill="none" xmlns="http://www.w3.org/2000/svg" viewBox="0 0 24 24" id="linkedin">
    <path d="M20.47 2H3.53a1.45 1.45 0 00-1.47 1.43v17.14A1.45 1.45 0 003.53 22h16.94a1.451 1.451 0 001.47-1.43V3.43A1.45 1.45 0 0020.47 2zM8.09 18.74h-3v-9h3v9zM6.59 8.48a1.56 1.56 0 010-3.12 1.57 1.57 0 110 3.12zm12.32 10.26h-3v-4.83c0-1.21-.43-2-1.52-2A1.65 1.65 0 0012.85 13a1.998 1.998 0 00-.1.73v5h-3v-9h3V11a3 3 0 012.71-1.5c2 0 3.45 1.29 3.45 4.06v5.18z" fill="#fff"></path>
  </symbol>
  <symbol fill="none" xmlns="http://www.w3.org/2000/svg" viewBox="0 0 24 24" id="twitter">
    <path d="M22 5.8a8.49 8.49 0 01-2.36.64 4.13 4.13 0 001.81-2.27 8.21 8.21 0 01-2.61 1 4.1 4.1 0 00-7 3.74 11.64 11.64 0 01-8.45-4.29 4.16 4.16 0 00-.55 2.07 4.09 4.09 0 001.82 3.41 4.05 4.05 0 01-1.86-.51v.05a4.1 4.1 0 003.3 4 3.933 3.933 0 01-1.1.17 4.907 4.907 0 01-.77-.07 4.11 4.11 0 003.83 2.84A8.22 8.22 0 012 18.28a11.57 11.57 0 006.29 1.85A11.589 11.589 0 0020 8.45v-.53a8.43 8.43 0 002-2.12z" fill="#fff"></path>
  </symbol>
  <symbol fill="none" xmlns="http://www.w3.org/2000/svg" viewBox="0 0 24 24" id="youtube">
    <path d="M23 9.71a8.5 8.5 0 00-.91-4.13 2.92 2.92 0 00-1.72-1A78.363 78.363 0 0012 4.27a78.45 78.45 0 00-8.34.3 2.87 2.87 0 00-1.46.74c-.9.83-1 2.25-1.1 3.45a48.289 48.289 0 000 6.48 9.55 9.55 0 00.3 2c.12.505.365.972.71 1.36a2.86 2.86 0 001.49.78c2.156.266 4.328.376 6.5.33 3.5.05 6.57 0 10.2-.28a2.88 2.88 0 001.53-.78c.28-.28.49-.623.61-1a10.58 10.58 0 00.52-3.4c.04-.56.04-3.94.04-4.54zM9.74 14.85V8.66l5.92 3.11c-1.66.92-3.85 1.96-5.92 3.08z" fill="#fff"></path>
  </symbol>
  <symbol fill="none" xmlns="http://www.w3.org/2000/svg" viewBox="0 0 24 24" id="facebook">
    <path d="M15.12 5.32H17V2.14A26.113 26.113 0 0014.26 2c-2.72 0-4.58 1.66-4.58 4.7v2.62H6.61v3.56h3.07V22h3.68v-9.12h3.06l.46-3.56h-3.52V7.05c0-1.05.28-1.73 1.76-1.73z" fill="#fff"></path>
  </symbol>
</svg>