<?xml version="1.0" encoding="iso-8859-1"?>
<!-- Generator: Adobe Illustrator 19.0.0, SVG Export Plug-In . SVG Version: 6.00 Build 0)  -->
<svg version="1.1" id="Layer_1" xmlns="http://www.w3.org/2000/svg" xmlns:xlink="http://www.w3.org/1999/xlink" x="0px" y="0px"
	 viewBox="0 0 512 512" style="enable-background:new 0 0 512 512;" xml:space="preserve">
<circle style="fill:#FFD15D;" cx="256" cy="256" r="256"/>
<path style="fill:#F9B54C;" d="M329.285,501.336c89.14-26.588,157.899-100.416,177.233-192.45L367.192,169.562l-73.201,24.083
	l-62.376-62.376l-59.799,41.696l35.418,93.746l46.754,46.754l-102.284,10.29L329.285,501.336z"/>
<g>
	<polygon style="fill:#324A5E;" points="311.661,226.604 287.28,250.985 325.573,289.277 151.704,289.277 151.704,323.755 
		325.573,323.755 287.28,362.048 311.661,386.427 391.571,306.516 	"/>
	<polygon style="fill:#324A5E;" points="367.192,169.562 193.322,169.562 231.615,131.27 207.234,106.889 127.324,186.801 
		207.234,266.712 231.615,242.331 193.322,204.04 367.192,204.04 	"/>
</g>
<g>
	<polygon style="fill:#2B3B4E;" points="311.661,226.604 287.28,250.985 325.573,289.277 255.426,289.277 255.426,323.755 
		325.573,323.755 287.28,362.048 311.661,386.427 391.571,306.516 	"/>
	<rect x="255.431" y="169.563" style="fill:#2B3B4E;" width="111.766" height="34.478"/>
</g>
<g>
</g>
<g>
</g>
<g>
</g>
<g>
</g>
<g>
</g>
<g>
</g>
<g>
</g>
<g>
</g>
<g>
</g>
<g>
</g>
<g>
</g>
<g>
</g>
<g>
</g>
<g>
</g>
<g>
</g>
</svg>
