<?xml version="1.0" encoding="iso-8859-1"?>
<!-- Generator: Adobe Illustrator 19.0.0, SVG Export Plug-In . SVG Version: 6.00 Build 0)  -->
<svg version="1.1" id="Layer_1" xmlns="http://www.w3.org/2000/svg" xmlns:xlink="http://www.w3.org/1999/xlink" x="0px" y="0px"
	 viewBox="0 0 297 297" style="enable-background:new 0 0 297 297;" xml:space="preserve">
<g>
	<g>
		<g>
			<g>
				<circle style="fill:#34495E;" cx="148.5" cy="148.5" r="148.5"/>
			</g>
		</g>
	</g>
	<path style="fill:#1D3747;" d="M188.953,67.704C160.709,78.958,142.286,90.498,139.5,116.5c-1,8-8,15-11,22c-11,27-14,55-36,77
		c-7.393,6.571-3.52,19.791-6.984,29.157l52.043,51.941c3.613,0.263,7.261,0.402,10.941,0.402
		c73.45,0,134.435-53.328,146.373-123.376L188.953,67.704z"/>
	<g>
		<polygon style="fill:#ECF0F1;" points="214.5,132 214.5,132 198,148.5 99,148.5 82.5,132 99,99 198,99 		"/>
	</g>
	<g>
		<rect x="123.75" y="110.994" style="fill:#345065;" width="49.5" height="5"/>
	</g>
	<g>
		<polygon style="fill:#82D9C8;" points="110.402,83.296 143.134,115.011 188.953,67.704 156.221,35.989 		"/>
	</g>
	<g>
		<path style="fill:#D0D5D9;" d="M92.5,247.5h112c5.523,0,10-4.477,10-10V132h-132v105.5C82.5,243.023,86.977,247.5,92.5,247.5z"/>
	</g>
	<g>
		<rect x="107.25" y="181.5" style="fill:#5D7486;" width="82.5" height="33"/>
	</g>
</g>
<g>
</g>
<g>
</g>
<g>
</g>
<g>
</g>
<g>
</g>
<g>
</g>
<g>
</g>
<g>
</g>
<g>
</g>
<g>
</g>
<g>
</g>
<g>
</g>
<g>
</g>
<g>
</g>
<g>
</g>
</svg>
